<mxfile host="app.diagrams.net" modified="2023-12-22T08:19:20.456Z" agent="Mozilla/5.0 (Windows NT 10.0; Win64; x64) AppleWebKit/537.36 (KHTML, like Gecko) Chrome/120.0.0.0 Safari/537.36 Edg/120.0.0.0" etag="gyQ2cd2FKc-u0vUN-y-U" version="22.1.11" type="github">
  <diagram name="第 1 页" id="42TdLFu5hjxumaOI7XeB">
    <mxGraphModel dx="2213" dy="785" grid="1" gridSize="10" guides="1" tooltips="1" connect="1" arrows="1" fold="1" page="1" pageScale="1" pageWidth="827" pageHeight="1169" math="0" shadow="0">
      <root>
        <mxCell id="0" />
        <mxCell id="1" parent="0" />
        <mxCell id="NhdCOhWgxpIEbbQk7Ya7-1" style="edgeStyle=orthogonalEdgeStyle;rounded=0;orthogonalLoop=1;jettySize=auto;html=1;curved=0;" parent="1" source="NhdCOhWgxpIEbbQk7Ya7-5" target="NhdCOhWgxpIEbbQk7Ya7-12" edge="1">
          <mxGeometry relative="1" as="geometry">
            <Array as="points">
              <mxPoint x="-680" y="140" />
              <mxPoint x="-680" y="140" />
            </Array>
          </mxGeometry>
        </mxCell>
        <mxCell id="NhdCOhWgxpIEbbQk7Ya7-2" value="input argument" style="edgeLabel;html=1;align=center;verticalAlign=middle;resizable=0;points=[];" parent="NhdCOhWgxpIEbbQk7Ya7-1" vertex="1" connectable="0">
          <mxGeometry x="-0.259" y="4" relative="1" as="geometry">
            <mxPoint x="12" y="-6" as="offset" />
          </mxGeometry>
        </mxCell>
        <mxCell id="NhdCOhWgxpIEbbQk7Ya7-5" value="" style="shape=umlLifeline;perimeter=lifelinePerimeter;whiteSpace=wrap;html=1;container=1;dropTarget=0;collapsible=0;recursiveResize=0;outlineConnect=0;portConstraint=eastwest;newEdgeStyle={&quot;curved&quot;:0,&quot;rounded&quot;:0};participant=umlActor;" parent="1" vertex="1">
          <mxGeometry x="-760" y="70" width="20" height="260" as="geometry" />
        </mxCell>
        <mxCell id="NhdCOhWgxpIEbbQk7Ya7-6" style="edgeStyle=orthogonalEdgeStyle;rounded=0;orthogonalLoop=1;jettySize=auto;html=1;curved=0;endArrow=none;endFill=0;startArrow=classic;startFill=1;" parent="1" edge="1">
          <mxGeometry relative="1" as="geometry">
            <mxPoint x="-645.5" y="179.9999999999999" as="sourcePoint" />
            <mxPoint x="-750.1451612903226" y="179.9999999999999" as="targetPoint" />
          </mxGeometry>
        </mxCell>
        <mxCell id="NhdCOhWgxpIEbbQk7Ya7-7" value="click “upload arg” button" style="edgeLabel;html=1;align=center;verticalAlign=middle;resizable=0;points=[];" parent="NhdCOhWgxpIEbbQk7Ya7-6" vertex="1" connectable="0">
          <mxGeometry x="0.1464" y="2" relative="1" as="geometry">
            <mxPoint x="6" y="-12" as="offset" />
          </mxGeometry>
        </mxCell>
        <mxCell id="NhdCOhWgxpIEbbQk7Ya7-8" style="edgeStyle=orthogonalEdgeStyle;rounded=0;orthogonalLoop=1;jettySize=auto;html=1;curved=0;" parent="1" source="NhdCOhWgxpIEbbQk7Ya7-12" target="NhdCOhWgxpIEbbQk7Ya7-18" edge="1">
          <mxGeometry relative="1" as="geometry" />
        </mxCell>
        <mxCell id="NhdCOhWgxpIEbbQk7Ya7-9" value="parameters" style="edgeLabel;html=1;align=center;verticalAlign=middle;resizable=0;points=[];" parent="NhdCOhWgxpIEbbQk7Ya7-8" vertex="1" connectable="0">
          <mxGeometry x="0.2771" relative="1" as="geometry">
            <mxPoint x="-5" y="-10" as="offset" />
          </mxGeometry>
        </mxCell>
        <mxCell id="NhdCOhWgxpIEbbQk7Ya7-10" style="edgeStyle=orthogonalEdgeStyle;rounded=0;orthogonalLoop=1;jettySize=auto;html=1;curved=0;dashed=1;" parent="1" edge="1">
          <mxGeometry relative="1" as="geometry">
            <mxPoint x="-645.5" y="289.9999999999999" as="sourcePoint" />
            <mxPoint x="-750.1451612903226" y="289.9999999999999" as="targetPoint" />
          </mxGeometry>
        </mxCell>
        <mxCell id="NhdCOhWgxpIEbbQk7Ya7-11" value="result" style="edgeLabel;html=1;align=center;verticalAlign=middle;resizable=0;points=[];" parent="NhdCOhWgxpIEbbQk7Ya7-10" vertex="1" connectable="0">
          <mxGeometry x="-0.0213" y="-1" relative="1" as="geometry">
            <mxPoint x="-4" y="-9" as="offset" />
          </mxGeometry>
        </mxCell>
        <mxCell id="NhdCOhWgxpIEbbQk7Ya7-12" value="" style="shape=umlLifeline;perimeter=lifelinePerimeter;whiteSpace=wrap;html=1;container=1;dropTarget=0;collapsible=0;recursiveResize=0;outlineConnect=0;portConstraint=eastwest;newEdgeStyle={&quot;curved&quot;:0,&quot;rounded&quot;:0};participant=umlBoundary;" parent="1" vertex="1">
          <mxGeometry x="-670" y="70" width="50" height="260" as="geometry" />
        </mxCell>
        <mxCell id="NhdCOhWgxpIEbbQk7Ya7-13" value="User" style="text;align=center;fontStyle=1;verticalAlign=middle;spacingLeft=3;spacingRight=3;strokeColor=none;rotatable=0;points=[[0,0.5],[1,0.5]];portConstraint=eastwest;html=1;" parent="1" vertex="1">
          <mxGeometry x="-790" y="30" width="80" height="30" as="geometry" />
        </mxCell>
        <mxCell id="NhdCOhWgxpIEbbQk7Ya7-14" style="edgeStyle=orthogonalEdgeStyle;rounded=0;orthogonalLoop=1;jettySize=auto;html=1;curved=0;" parent="1" source="NhdCOhWgxpIEbbQk7Ya7-18" target="NhdCOhWgxpIEbbQk7Ya7-18" edge="1">
          <mxGeometry relative="1" as="geometry">
            <mxPoint x="-550.5" y="229.9999999999999" as="sourcePoint" />
            <mxPoint x="-550.1451612903226" y="269.9999999999999" as="targetPoint" />
            <Array as="points">
              <mxPoint x="-510" y="230" />
              <mxPoint x="-510" y="250" />
            </Array>
          </mxGeometry>
        </mxCell>
        <mxCell id="NhdCOhWgxpIEbbQk7Ya7-15" value="validate&amp;nbsp;parameters" style="edgeLabel;html=1;align=center;verticalAlign=middle;resizable=0;points=[];" parent="NhdCOhWgxpIEbbQk7Ya7-14" vertex="1" connectable="0">
          <mxGeometry x="0.1919" y="2" relative="1" as="geometry">
            <mxPoint x="18" y="-32" as="offset" />
          </mxGeometry>
        </mxCell>
        <mxCell id="NhdCOhWgxpIEbbQk7Ya7-16" style="edgeStyle=orthogonalEdgeStyle;rounded=0;orthogonalLoop=1;jettySize=auto;html=1;curved=0;dashed=1;" parent="1" source="NhdCOhWgxpIEbbQk7Ya7-18" target="NhdCOhWgxpIEbbQk7Ya7-12" edge="1">
          <mxGeometry relative="1" as="geometry">
            <Array as="points">
              <mxPoint x="-600" y="270" />
              <mxPoint x="-600" y="270" />
            </Array>
          </mxGeometry>
        </mxCell>
        <mxCell id="NhdCOhWgxpIEbbQk7Ya7-17" value="result" style="edgeLabel;html=1;align=center;verticalAlign=middle;resizable=0;points=[];" parent="NhdCOhWgxpIEbbQk7Ya7-16" vertex="1" connectable="0">
          <mxGeometry x="0.0937" y="-1" relative="1" as="geometry">
            <mxPoint y="-9" as="offset" />
          </mxGeometry>
        </mxCell>
        <mxCell id="NhdCOhWgxpIEbbQk7Ya7-18" value="" style="shape=umlLifeline;perimeter=lifelinePerimeter;whiteSpace=wrap;html=1;container=1;dropTarget=0;collapsible=0;recursiveResize=0;outlineConnect=0;portConstraint=eastwest;newEdgeStyle={&quot;curved&quot;:0,&quot;rounded&quot;:0};participant=umlControl;" parent="1" vertex="1">
          <mxGeometry x="-570" y="70" width="40" height="260" as="geometry" />
        </mxCell>
        <mxCell id="NhdCOhWgxpIEbbQk7Ya7-19" value="ArgSettingInterface" style="text;align=center;fontStyle=1;verticalAlign=middle;spacingLeft=3;spacingRight=3;strokeColor=none;rotatable=0;points=[[0,0.5],[1,0.5]];portConstraint=eastwest;html=1;" parent="1" vertex="1">
          <mxGeometry x="-685" y="34" width="80" height="26" as="geometry" />
        </mxCell>
        <mxCell id="NhdCOhWgxpIEbbQk7Ya7-20" value="ArgSetting" style="text;align=center;fontStyle=1;verticalAlign=middle;spacingLeft=3;spacingRight=3;strokeColor=none;rotatable=0;points=[[0,0.5],[1,0.5]];portConstraint=eastwest;html=1;" parent="1" vertex="1">
          <mxGeometry x="-590" y="34" width="80" height="26" as="geometry" />
        </mxCell>
      </root>
    </mxGraphModel>
  </diagram>
</mxfile>
